{
  "accessors": [
    {
      "bufferView": 2,
      "componentType": 5126,
      "count": 289,
      "max": [
        17.149133682250977,
        -26.85106658935547,
        30.579795837402344
      ],
      "min": [
        -17.149127960205078,
        -55.12272262573242,
        -15.893150329589844
      ],
      "type": "VEC3"
    },
    {
      "bufferView": 2,
      "byteOffset": 3468,
      "componentType": 5126,
      "count": 289,
      "max": [
        1.0,
        1.0,
        1.0
      ],
      "min": [
        -1.0,
        -1.0,
        -1.0
      ],
      "type": "VEC3"
    },
    {
      "bufferView": 3,
      "componentType": 5126,
      "count": 289,
      "max": [
        1.0,
        1.0,
        1.0,
        1.0
      ],
      "min": [
        -1.0,
        -1.0,
        -1.0,
        1.0
      ],
      "type": "VEC4"
    },
    {
      "bufferView": 1,
      "componentType": 5126,
      "count": 289,
      "max": [
        0.9941266775131226,
        0.8769814372062683
      ],
      "min": [
        0.04133963584899902,
        0.006344612687826157
      ],
      "type": "VEC2"
    },
    {
      "bufferView": 0,
      "componentType": 5125,
      "count": 432,
      "type": "SCALAR"
    },
    {
      "bufferView": 2,
      "byteOffset": 6936,
      "componentType": 5126,
      "count": 289,
      "max": [
        17.149133682250977,
        2.7598838806152344,
        30.579795837402344
      ],
      "min": [
        -17.149127960205078,
        -25.51177215576172,
        -15.893150329589844
      ],
      "type": "VEC3"
    },
    {
      "bufferView": 2,
      "byteOffset": 10404,
      "componentType": 5126,
      "count": 289,
      "max": [
        1.0,
        1.0,
        1.0
      ],
      "min": [
        -1.0,
        -1.0,
        -1.0
      ],
      "type": "VEC3"
    },
    {
      "bufferView": 3,
      "byteOffset": 4624,
      "componentType": 5126,
      "count": 289,
      "max": [
        1.0,
        1.0,
        1.0,
        1.0
      ],
      "min": [
        -1.0,
        -1.0,
        -1.0,
        1.0
      ],
      "type": "VEC4"
    },
    {
      "bufferView": 1,
      "byteOffset": 2312,
      "componentType": 5126,
      "count": 289,
      "max": [
        0.9941266775131226,
        0.9944814443588257
      ],
      "min": [
        0.041435420513153076,
        0.03874330595135689
      ],
      "type": "VEC2"
    },
    {
      "bufferView": 0,
      "byteOffset": 1728,
      "componentType": 5125,
      "count": 432,
      "type": "SCALAR"
    },
    {
      "bufferView": 2,
      "byteOffset": 13872,
      "componentType": 5126,
      "count": 286,
      "max": [
        17.149133682250977,
        32.37083435058594,
        30.579795837402344
      ],
      "min": [
        -17.149127960205078,
        4.099176406860352,
        -15.893150329589844
      ],
      "type": "VEC3"
    },
    {
      "bufferView": 2,
      "byteOffset": 17304,
      "componentType": 5126,
      "count": 286,
      "max": [
        1.0,
        1.0,
        1.0
      ],
      "min": [
        -1.0,
        -1.0,
        -1.0
      ],
      "type": "VEC3"
    },
    {
      "bufferView": 3,
      "byteOffset": 9248,
      "componentType": 5126,
      "count": 286,
      "max": [
        1.0,
        1.0,
        1.0,
        1.0
      ],
      "min": [
        -1.0,
        -1.0,
        -1.0,
        1.0
      ],
      "type": "VEC4"
    },
    {
      "bufferView": 1,
      "byteOffset": 4624,
      "componentType": 5126,
      "count": 286,
      "max": [
        0.9372233152389526,
        0.9153754711151123
      ],
      "min": [
        0.04143576696515083,
        0.006243317853659391
      ],
      "type": "VEC2"
    },
    {
      "bufferView": 0,
      "byteOffset": 3456,
      "componentType": 5125,
      "count": 432,
      "type": "SCALAR"
    },
    {
      "bufferView": 2,
      "byteOffset": 20736,
      "componentType": 5126,
      "count": 172,
      "max": [
        19.0,
        65.99993896484375,
        28.000001907348633
      ],
      "min": [
        -19.0,
        -66.00006103515625,
        -28.0
      ],
      "type": "VEC3"
    },
    {
      "bufferView": 2,
      "byteOffset": 22800,
      "componentType": 5126,
      "count": 172,
      "max": [
        1.0,
        1.0,
        1.0
      ],
      "min": [
        -1.0,
        -1.0,
        -1.0
      ],
      "type": "VEC3"
    },
    {
      "bufferView": 3,
      "byteOffset": 13824,
      "componentType": 5126,
      "count": 172,
      "max": [
        1.0,
        0.00013625322026200593,
        1.0,
        1.0
      ],
      "min": [
        -1.0,
        -0.00013535474136006087,
        -1.0,
        1.0
      ],
      "type": "VEC4"
    },
    {
      "bufferView": 1,
      "byteOffset": 6912,
      "componentType": 5126,
      "count": 172,
      "max": [
        0.9896475672721863,
        0.9893201589584351
      ],
      "min": [
        0.007356413174420595,
        0.039865925908088684
      ],
      "type": "VEC2"
    },
    {
      "bufferView": 0,
      "byteOffset": 5184,
      "componentType": 5125,
      "count": 300,
      "type": "SCALAR"
    },
    {
      "bufferView": 2,
      "byteOffset": 24864,
      "componentType": 5126,
      "count": 289,
      "max": [
        17.149133682250977,
        61.981781005859375,
        30.579795837402344
      ],
      "min": [
        -17.149127960205078,
        33.71012496948242,
        -15.893150329589844
      ],
      "type": "VEC3"
    },
    {
      "bufferView": 2,
      "byteOffset": 28332,
      "componentType": 5126,
      "count": 289,
      "max": [
        1.0,
        1.0,
        1.0
      ],
      "min": [
        -1.0,
        -1.0,
        -1.0
      ],
      "type": "VEC3"
    },
    {
      "bufferView": 3,
      "byteOffset": 16576,
      "componentType": 5126,
      "count": 289,
      "max": [
        1.0,
        1.0,
        1.0,
        1.0
      ],
      "min": [
        -1.0,
        -1.0,
        -1.0,
        1.0
      ],
      "type": "VEC4"
    },
    {
      "bufferView": 1,
      "byteOffset": 8288,
      "componentType": 5126,
      "count": 289,
      "max": [
        0.8516266942024231,
        0.9953754544258118
      ],
      "min": [
        0.04134457930922508,
        0.10122936964035034
      ],
      "type": "VEC2"
    },
    {
      "bufferView": 0,
      "byteOffset": 6384,
      "componentType": 5125,
      "count": 432,
      "type": "SCALAR"
    }
  ],
  "asset": {
    "extras": {
      "author": "Amiel Goco (https://sketchfab.com/pamikoe)",
      "license": "CC-BY-4.0 (http://creativecommons.org/licenses/by/4.0/)",
      "source": "https://sketchfab.com/3d-models/rusty-filing-cabinet-619484b78fbe449ea5c0cdb68e8f2bd6",
      "title": "Rusty Filing Cabinet"
    },
    "generator": "Sketchfab-12.65.0",
    "version": "2.0"
  },
  "bufferViews": [
    {
      "buffer": 0,
      "byteLength": 8112,
      "name": "floatBufferViews",
      "target": 34963
    },
    {
      "buffer": 0,
      "byteLength": 10600,
      "byteOffset": 8112,
      "byteStride": 8,
      "name": "floatBufferViews",
      "target": 34962
    },
    {
      "buffer": 0,
      "byteLength": 31800,
      "byteOffset": 18712,
      "byteStride": 12,
      "name": "floatBufferViews",
      "target": 34962
    },
    {
      "buffer": 0,
      "byteLength": 21200,
      "byteOffset": 50512,
      "byteStride": 16,
      "name": "floatBufferViews",
      "target": 34962
    }
  ],
  "buffers": [
    {
      "byteLength": 71712,
      "uri": "scene.bin"
    }
  ],
  "images": [
    {
      "uri": "textures/mat_drawers_baseColor.jpeg"
    },
    {
      "uri": "textures/mat_drawers_metallicRoughness.png"
    },
    {
      "uri": "textures/mat_drawers_normal.png"
    },
    {
      "uri": "textures/mat_cabinet_baseColor.jpeg"
    },
    {
      "uri": "textures/mat_cabinet_metallicRoughness.png"
    },
    {
      "uri": "textures/mat_cabinet_normal.png"
    }
  ],
  "materials": [
    {
      "doubleSided": true,
      "name": "mat_drawers",
      "normalTexture": {
        "index": 2
      },
      "occlusionTexture": {
        "index": 1
      },
      "pbrMetallicRoughness": {
        "baseColorTexture": {
          "index": 0
        },
        "metallicRoughnessTexture": {
          "index": 1
        }
      }
    },
    {
      "doubleSided": true,
      "name": "mat_cabinet",
      "normalTexture": {
        "index": 5
      },
      "occlusionTexture": {
        "index": 4
      },
      "pbrMetallicRoughness": {
        "baseColorTexture": {
          "index": 3
        },
        "metallicRoughnessTexture": {
          "index": 4
        }
      }
    }
  ],
  "meshes": [
    {
      "name": "drawer_04_low_mat_drawers_0",
      "primitives": [
        {
          "attributes": {
            "NORMAL": 1,
            "POSITION": 0,
            "TANGENT": 2,
            "TEXCOORD_0": 3
          },
          "indices": 4,
          "material": 0,
          "mode": 4
        }
      ]
    },
    {
      "name": "drawer_03_low_mat_drawers_0",
      "primitives": [
        {
          "attributes": {
            "NORMAL": 6,
            "POSITION": 5,
            "TANGENT": 7,
            "TEXCOORD_0": 8
          },
          "indices": 9,
          "material": 0,
          "mode": 4
        }
      ]
    },
    {
      "name": "drawer_02_low_mat_drawers_0",
      "primitives": [
        {
          "attributes": {
            "NORMAL": 11,
            "POSITION": 10,
            "TANGENT": 12,
            "TEXCOORD_0": 13
          },
          "indices": 14,
          "material": 0,
          "mode": 4
        }
      ]
    },
    {
      "name": "cabinet_low_mat_cabinet_0",
      "primitives": [
        {
          "attributes": {
            "NORMAL": 16,
            "POSITION": 15,
            "TANGENT": 17,
            "TEXCOORD_0": 18
          },
          "indices": 19,
          "material": 1,
          "mode": 4
        }
      ]
    },
    {
      "name": "drawer_01_low_mat_drawers_0",
      "primitives": [
        {
          "attributes": {
            "NORMAL": 21,
            "POSITION": 20,
            "TANGENT": 22,
            "TEXCOORD_0": 23
          },
          "indices": 24,
          "material": 0,
          "mode": 4
        }
      ]
    }
  ],
  "nodes": [
    {
      "children": [
        1
      ],
      "matrix": [
        1.6226459741592407,
        0.0,
        0.0,
        0.0,
        0.0,
        3.6029978426538117e-16,
        -1.6226459741592407,
        0.0,
        0.0,
        1.6226459741592407,
        3.6029978426538117e-16,
        0.0,
        0.0,
        0.0,
        0.0,
        1.0
      ],
      "name": "Sketchfab_model"
    },
    {
      "children": [
        2
      ],
      "matrix": [
        1.0,
        0.0,
        0.0,
        0.0,
        0.0,
        0.0,
        1.0,
        0.0,
        0.0,
        -1.0,
        0.0,
        0.0,
        0.0,
        0.0,
        0.0,
        1.0
      ],
      "name": "ec62ffafd1a7462e9ed5e4e651973fb8.fbx"
    },
    {
      "children": [
        3
      ],
      "name": "RootNode"
    },
    {
      "children": [
        4,
        6,
        8,
        10,
        12
      ],
      "matrix": [
        1.0,
        0.0,
        0.0,
        0.0,
        0.0,
        0.9999999999999867,
        1.6292067073209113e-07,
        0.0,
        0.0,
        -1.6292067073209113e-07,
        0.9999999999999867,
        0.0,
        0.0,
        0.0,
        0.0,
        1.0
      ],
      "name": "filing_cabinet_low"
    },
    {
      "children": [
        5
      ],
      "matrix": [
        1.0,
        0.0,
        0.0,
        0.0,
        0.0,
        1.0,
        2.646977960169688e-23,
        0.0,
        0.0,
        -2.646977960169688e-23,
        1.0,
        0.0,
        0.0,
        -4.235164736271502e-22,
        14.999988555908203,
        1.0
      ],
      "name": "drawer_04_low"
    },
    {
      "mesh": 0,
      "name": "drawer_04_low_mat_drawers_0"
    },
    {
      "children": [
        7
      ],
      "matrix": [
        1.0,
        0.0,
        0.0,
        0.0,
        0.0,
        1.0,
        2.646977960169688e-23,
        0.0,
        0.0,
        -2.646977960169688e-23,
        1.0,
        0.0,
        0.0,
        -5.684341886080802e-14,
        3.999988317489624,
        1.0
      ],
      "name": "drawer_03_low"
    },
    {
      "mesh": 1,
      "name": "drawer_03_low_mat_drawers_0"
    },
    {
      "children": [
        9
      ],
      "matrix": [
        1.0,
        0.0,
        0.0,
        0.0,
        0.0,
        1.0,
        2.646977960169688e-23,
        0.0,
        0.0,
        -2.646977960169688e-23,
        1.0,
        0.0,
        0.0,
        0.0,
        10.999987602233887,
        1.0
      ],
      "name": "drawer_02_low"
    },
    {
      "mesh": 2,
      "name": "drawer_02_low_mat_drawers_0"
    },
    {
      "children": [
        11
      ],
      "matrix": [
        1.0,
        0.0,
        0.0,
        0.0,
        0.0,
        1.0,
        2.646977960169688e-23,
        0.0,
        0.0,
        -2.646977960169688e-23,
        1.0,
        0.0,
        0.0,
        0.0,
        0.0,
        1.0
      ],
      "name": "cabinet_low"
    },
    {
      "mesh": 3,
      "name": "cabinet_low_mat_cabinet_0"
    },
    {
      "children": [
        13
      ],
      "matrix": [
        1.0,
        0.0,
        0.0,
        0.0,
        0.0,
        1.0,
        2.646977960169688e-23,
        0.0,
        0.0,
        -2.646977960169688e-23,
        1.0,
        0.0,
        0.0,
        -1.0587911840678754e-22,
        4.999988555908203,
        1.0
      ],
      "name": "drawer_01_low"
    },
    {
      "mesh": 4,
      "name": "drawer_01_low_mat_drawers_0"
    }
  ],
  "samplers": [
    {
      "magFilter": 9729,
      "minFilter": 9987,
      "wrapS": 10497,
      "wrapT": 10497
    }
  ],
  "scene": 0,
  "scenes": [
    {
      "name": "Sketchfab_Scene",
      "nodes": [
        0
      ]
    }
  ],
  "textures": [
    {
      "sampler": 0,
      "source": 0
    },
    {
      "sampler": 0,
      "source": 1
    },
    {
      "sampler": 0,
      "source": 2
    },
    {
      "sampler": 0,
      "source": 3
    },
    {
      "sampler": 0,
      "source": 4
    },
    {
      "sampler": 0,
      "source": 5
    }
  ]
}
