{
  "accessors": [
    {
      "bufferView": 2,
      "componentType": 5126,
      "count": 2015,
      "max": [
        0.14952093362808228,
        0.029999999329447746,
        0.14944134652614594
      ],
      "min": [
        -0.14952093362808228,
        -5.420462301231055e-09,
        -0.14970378577709198
      ],
      "type": "VEC3"
    },
    {
      "bufferView": 2,
      "byteOffset": 24180,
      "componentType": 5126,
      "count": 2015,
      "max": [
        1.0,
        1.0,
        1.0
      ],
      "min": [
        -1.0,
        -1.0,
        -1.0
      ],
      "type": "VEC3"
    },
    {
      "bufferView": 3,
      "componentType": 5126,
      "count": 2015,
      "max": [
        0.9999978542327881,
        0.997541069984436,
        1.0,
        1.0
      ],
      "min": [
        -0.9996622204780579,
        -1.0,
        -0.9996896982192993,
        1.0
      ],
      "type": "VEC4"
    },
    {
      "bufferView": 1,
      "componentType": 5126,
      "count": 2015,
      "max": [
        0.9228034615516663,
        0.9975489377975464
      ],
      "min": [
        0.0023849615827202797,
        0.002448516897857189
      ],
      "type": "VEC2"
    },
    {
      "bufferView": 1,
      "byteOffset": 16120,
      "componentType": 5126,
      "count": 2015,
      "max": [
        0.9228034615516663,
        0.9975489377975464
      ],
      "min": [
        0.0023849615827202797,
        0.002448516897857189
      ],
      "type": "VEC2"
    },
    {
      "bufferView": 1,
      "byteOffset": 32240,
      "componentType": 5126,
      "count": 2015,
      "max": [
        0.9228034615516663,
        0.9975489377975464
      ],
      "min": [
        0.0023849615827202797,
        0.002448516897857189
      ],
      "type": "VEC2"
    },
    {
      "bufferView": 1,
      "byteOffset": 48360,
      "componentType": 5126,
      "count": 2015,
      "max": [
        0.9228034615516663,
        0.9975489377975464
      ],
      "min": [
        0.0023849615827202797,
        0.002448516897857189
      ],
      "type": "VEC2"
    },
    {
      "bufferView": 0,
      "componentType": 5125,
      "count": 11232,
      "type": "SCALAR"
    }
  ],
  "asset": {
    "extras": {
      "author": "Dreamsoft Innovations Private Limited (https://sketchfab.com/dreamsoftin)",
      "license": "CC-BY-4.0 (http://creativecommons.org/licenses/by/4.0/)",
      "source": "https://sketchfab.com/3d-models/weighing-scale-366ba4e613004db0bab6c04f0c1ee5a8",
      "title": "Weighing Scale"
    },
    "generator": "Sketchfab-12.64.0",
    "version": "2.0"
  },
  "bufferViews": [
    {
      "buffer": 0,
      "byteLength": 44928,
      "name": "floatBufferViews",
      "target": 34963
    },
    {
      "buffer": 0,
      "byteLength": 64480,
      "byteOffset": 44928,
      "byteStride": 8,
      "name": "floatBufferViews",
      "target": 34962
    },
    {
      "buffer": 0,
      "byteLength": 48360,
      "byteOffset": 109408,
      "byteStride": 12,
      "name": "floatBufferViews",
      "target": 34962
    },
    {
      "buffer": 0,
      "byteLength": 32240,
      "byteOffset": 157768,
      "byteStride": 16,
      "name": "floatBufferViews",
      "target": 34962
    }
  ],
  "buffers": [
    {
      "byteLength": 190008,
      "uri": "scene.bin"
    }
  ],
  "images": [
    {
      "uri": "textures/Weighing_Scale_Mat_baseColor.png"
    },
    {
      "uri": "textures/Weighing_Scale_Mat_metallicRoughness.png"
    },
    {
      "uri": "textures/Weighing_Scale_Mat_emissive.png"
    },
    {
      "uri": "textures/Weighing_Scale_Mat_normal.png"
    }
  ],
  "materials": [
    {
      "doubleSided": true,
      "emissiveFactor": [
        1.0,
        1.0,
        1.0
      ],
      "emissiveTexture": {
        "index": 2
      },
      "name": "Weighing_Scale_Mat",
      "normalTexture": {
        "index": 3
      },
      "occlusionTexture": {
        "index": 1
      },
      "pbrMetallicRoughness": {
        "baseColorTexture": {
          "index": 0
        },
        "metallicRoughnessTexture": {
          "index": 1
        }
      }
    }
  ],
  "meshes": [
    {
      "name": "Weighing_Scale_Weighing_Scale_Mat_0",
      "primitives": [
        {
          "attributes": {
            "NORMAL": 1,
            "POSITION": 0,
            "TANGENT": 2,
            "TEXCOORD_0": 3,
            "TEXCOORD_1": 4,
            "TEXCOORD_2": 5,
            "TEXCOORD_3": 6
          },
          "indices": 7,
          "material": 0,
          "mode": 4
        }
      ]
    }
  ],
  "nodes": [
    {
      "children": [
        1
      ],
      "matrix": [
        1.0,
        0.0,
        0.0,
        0.0,
        0.0,
        2.220446049250313e-16,
        -1.0,
        0.0,
        0.0,
        1.0,
        2.220446049250313e-16,
        0.0,
        0.0,
        0.0,
        0.0,
        1.0
      ],
      "name": "Sketchfab_model"
    },
    {
      "children": [
        2
      ],
      "matrix": [
        1.0,
        0.0,
        0.0,
        0.0,
        0.0,
        0.0,
        1.0,
        0.0,
        0.0,
        -1.0,
        0.0,
        0.0,
        0.0,
        0.0,
        0.0,
        1.0
      ],
      "name": "Weighing_Scale.fbx"
    },
    {
      "children": [
        3
      ],
      "name": "RootNode"
    },
    {
      "children": [
        4
      ],
      "matrix": [
        1.0,
        0.0,
        0.0,
        0.0,
        0.0,
        0.999999999999999,
        4.371138828673792e-08,
        0.0,
        0.0,
        -4.371138828673792e-08,
        0.999999999999999,
        0.0,
        0.0,
        0.0,
        0.0,
        1.0
      ],
      "name": "Weighing_Scale"
    },
    {
      "mesh": 0,
      "name": "Weighing_Scale_Weighing_Scale_Mat_0"
    }
  ],
  "samplers": [
    {
      "magFilter": 9729,
      "minFilter": 9987,
      "wrapS": 10497,
      "wrapT": 10497
    }
  ],
  "scene": 0,
  "scenes": [
    {
      "name": "Sketchfab_Scene",
      "nodes": [
        0
      ]
    }
  ],
  "textures": [
    {
      "sampler": 0,
      "source": 0
    },
    {
      "sampler": 0,
      "source": 1
    },
    {
      "sampler": 0,
      "source": 2
    },
    {
      "sampler": 0,
      "source": 3
    }
  ]
}
