{
  "accessors": [
    {
      "bufferView": 2,
      "componentType": 5126,
      "count": 406,
      "max": [
        0.3467615246772766,
        -0.20681791007518768,
        0.25863367319107056
      ],
      "min": [
        -0.3792007565498352,
        -0.24177449941635132,
        0.008158385753631592
      ],
      "type": "VEC3"
    },
    {
      "bufferView": 2,
      "byteOffset": 4872,
      "componentType": 5126,
      "count": 406,
      "max": [
        1.0,
        0.7182360291481018,
        0.993085503578186
      ],
      "min": [
        -1.0,
        -1.0,
        -0.9777703285217285
      ],
      "type": "VEC3"
    },
    {
      "bufferView": 1,
      "componentType": 5126,
      "count": 406,
      "max": [
        0.8599979281425476,
        0.8621787428855896
      ],
      "min": [
        0.12661536037921906,
        0.0002136462280759588
      ],
      "type": "VEC2"
    },
    {
      "bufferView": 0,
      "componentType": 5125,
      "count": 1704,
      "type": "SCALAR"
    },
    {
      "bufferView": 2,
      "byteOffset": 9744,
      "componentType": 5126,
      "count": 85,
      "max": [
        0.33145105838775635,
        -0.2306632250547409,
        0.24983136355876923
      ],
      "min": [
        -0.36389029026031494,
        -0.24479177594184875,
        0.05204245448112488
      ],
      "type": "VEC3"
    },
    {
      "bufferView": 2,
      "byteOffset": 10764,
      "componentType": 5126,
      "count": 85,
      "max": [
        0.8262670636177063,
        -0.4348928928375244,
        0.900482177734375
      ],
      "min": [
        -0.8262643814086914,
        -0.9993910193443298,
        -0.8438360095024109
      ],
      "type": "VEC3"
    },
    {
      "bufferView": 1,
      "byteOffset": 3248,
      "componentType": 5126,
      "count": 85,
      "max": [
        0.6754950284957886,
        0.5124073028564453
      ],
      "min": [
        0.526872456073761,
        0.0002136462280759588
      ],
      "type": "VEC2"
    },
    {
      "bufferView": 0,
      "byteOffset": 6816,
      "componentType": 5125,
      "count": 408,
      "type": "SCALAR"
    },
    {
      "bufferView": 2,
      "byteOffset": 11784,
      "componentType": 5126,
      "count": 1311,
      "max": [
        0.3469197154045105,
        -0.03843940049409866,
        0.2626912593841553
      ],
      "min": [
        -0.3793588876724243,
        -0.22474637627601624,
        -0.009501457214355469
      ],
      "type": "VEC3"
    },
    {
      "bufferView": 2,
      "byteOffset": 27516,
      "componentType": 5126,
      "count": 1311,
      "max": [
        1.0,
        1.0,
        1.0
      ],
      "min": [
        -1.0,
        -1.0,
        -1.0
      ],
      "type": "VEC3"
    },
    {
      "bufferView": 1,
      "byteOffset": 3928,
      "componentType": 5126,
      "count": 1311,
      "max": [
        0.8629926443099976,
        0.9997863173484802
      ],
      "min": [
        0.0002136462280759588,
        0.0002136462280759588
      ],
      "type": "VEC2"
    },
    {
      "bufferView": 0,
      "byteOffset": 8448,
      "componentType": 5125,
      "count": 3954,
      "type": "SCALAR"
    },
    {
      "bufferView": 2,
      "byteOffset": 43248,
      "componentType": 5126,
      "count": 120,
      "max": [
        0.2588614821434021,
        -0.05226792022585869,
        0.2626912593841553
      ],
      "min": [
        -0.34643250703811646,
        -0.21215634047985077,
        0.2436777651309967
      ],
      "type": "VEC3"
    },
    {
      "bufferView": 2,
      "byteOffset": 44688,
      "componentType": 5126,
      "count": 120,
      "max": [
        1.0,
        1.0,
        0.9999674558639526
      ],
      "min": [
        -1.0,
        -1.0,
        -0.020132053643465042
      ],
      "type": "VEC3"
    },
    {
      "bufferView": 1,
      "byteOffset": 14416,
      "componentType": 5126,
      "count": 120,
      "max": [
        0.8081322908401489,
        0.6929246783256531
      ],
      "min": [
        0.5487112998962402,
        0.0002136462280759588
      ],
      "type": "VEC2"
    },
    {
      "bufferView": 0,
      "byteOffset": 24264,
      "componentType": 5125,
      "count": 384,
      "type": "SCALAR"
    },
    {
      "bufferView": 2,
      "byteOffset": 46128,
      "componentType": 5126,
      "count": 472,
      "max": [
        0.002221284434199333,
        -0.24001698195934296,
        0.06614982336759567
      ],
      "min": [
        -0.03761376440525055,
        -0.2427181899547577,
        0.05955788120627403
      ],
      "type": "VEC3"
    },
    {
      "bufferView": 2,
      "byteOffset": 51792,
      "componentType": 5126,
      "count": 472,
      "max": [
        1.0,
        0.9625223278999329,
        0.9625172019004822
      ],
      "min": [
        -1.0,
        -0.9625407457351685,
        -0.9625145792961121
      ],
      "type": "VEC3"
    },
    {
      "bufferView": 1,
      "byteOffset": 15376,
      "componentType": 5126,
      "count": 472,
      "max": [
        0.4798152446746826,
        0.9007076621055603
      ],
      "min": [
        0.2915990352630615,
        0.7159439921379089
      ],
      "type": "VEC2"
    },
    {
      "bufferView": 0,
      "byteOffset": 25800,
      "componentType": 5125,
      "count": 708,
      "type": "SCALAR"
    }
  ],
  "asset": {
    "extras": {
      "author": "TkachenkoPA (https://sketchfab.com/TkachenkoPA)",
      "license": "CC-BY-4.0 (http://creativecommons.org/licenses/by/4.0/)",
      "source": "https://sketchfab.com/3d-models/air-condition-a9899a3a32d94b3fb5f631fb881ee4ac",
      "title": "Air Condition"
    },
    "generator": "Sketchfab-12.67.0",
    "version": "2.0"
  },
  "bufferViews": [
    {
      "buffer": 0,
      "byteLength": 28632,
      "name": "floatBufferViews",
      "target": 34963
    },
    {
      "buffer": 0,
      "byteLength": 19152,
      "byteOffset": 28632,
      "byteStride": 8,
      "name": "floatBufferViews",
      "target": 34962
    },
    {
      "buffer": 0,
      "byteLength": 57456,
      "byteOffset": 47784,
      "byteStride": 12,
      "name": "floatBufferViews",
      "target": 34962
    }
  ],
  "buffers": [
    {
      "byteLength": 105240,
      "uri": "scene.bin"
    }
  ],
  "extensionsUsed": [
    "KHR_materials_clearcoat"
  ],
  "images": [
    {
      "uri": "textures/plastic_silver_metallicRoughness.png"
    },
    {
      "uri": "textures/plastic_baseColor.png"
    },
    {
      "uri": "textures/filter_baseColor.png"
    },
    {
      "uri": "textures/filter_metallicRoughness.png"
    }
  ],
  "materials": [
    {
      "doubleSided": true,
      "extensions": {
        "KHR_materials_clearcoat": {
          "clearcoatFactor": 0.30659298780487804,
          "clearcoatRoughnessFactor": 0.04
        }
      },
      "name": "plastic_silver",
      "occlusionTexture": {
        "index": 0
      },
      "pbrMetallicRoughness": {
        "metallicFactor": 0.7090320121951219,
        "metallicRoughnessTexture": {
          "index": 0
        },
        "roughnessFactor": 0.3641387195121951
      }
    },
    {
      "doubleSided": true,
      "name": "glass",
      "pbrMetallicRoughness": {
        "metallicFactor": 0.3980564024390244,
        "roughnessFactor": 0.7421875
      }
    },
    {
      "doubleSided": true,
      "name": "plastic",
      "occlusionTexture": {
        "index": 0
      },
      "pbrMetallicRoughness": {
        "baseColorTexture": {
          "index": 1
        },
        "metallicFactor": 0.0,
        "metallicRoughnessTexture": {
          "index": 0
        },
        "roughnessFactor": 0.11413871951219512
      }
    },
    {
      "doubleSided": true,
      "name": "filter",
      "occlusionTexture": {
        "index": 3
      },
      "pbrMetallicRoughness": {
        "baseColorTexture": {
          "index": 2
        },
        "metallicFactor": 0.0,
        "metallicRoughnessTexture": {
          "index": 3
        }
      }
    },
    {
      "doubleSided": true,
      "name": "glossy",
      "pbrMetallicRoughness": {
        "roughnessFactor": 0.0
      }
    }
  ],
  "meshes": [
    {
      "name": "Cube_plastic silver_0",
      "primitives": [
        {
          "attributes": {
            "NORMAL": 1,
            "POSITION": 0,
            "TEXCOORD_0": 2
          },
          "indices": 3,
          "material": 0,
          "mode": 4
        }
      ]
    },
    {
      "name": "Cube_glass_0",
      "primitives": [
        {
          "attributes": {
            "NORMAL": 5,
            "POSITION": 4,
            "TEXCOORD_0": 6
          },
          "indices": 7,
          "material": 1,
          "mode": 4
        }
      ]
    },
    {
      "name": "Cube_plastic_0",
      "primitives": [
        {
          "attributes": {
            "NORMAL": 9,
            "POSITION": 8,
            "TEXCOORD_0": 10
          },
          "indices": 11,
          "material": 2,
          "mode": 4
        }
      ]
    },
    {
      "name": "Cube_filter_0",
      "primitives": [
        {
          "attributes": {
            "NORMAL": 13,
            "POSITION": 12,
            "TEXCOORD_0": 14
          },
          "indices": 15,
          "material": 3,
          "mode": 4
        }
      ]
    },
    {
      "name": "Cube_glossy_0",
      "primitives": [
        {
          "attributes": {
            "NORMAL": 17,
            "POSITION": 16,
            "TEXCOORD_0": 18
          },
          "indices": 19,
          "material": 4,
          "mode": 4
        }
      ]
    }
  ],
  "nodes": [
    {
      "children": [
        1
      ],
      "matrix": [
        1.266637921333313,
        0.0,
        0.0,
        0.0,
        0.0,
        2.8125011682551837e-16,
        -1.266637921333313,
        0.0,
        0.0,
        1.266637921333313,
        2.8125011682551837e-16,
        0.0,
        0.0,
        0.0,
        0.0,
        1.0
      ],
      "name": "Sketchfab_model"
    },
    {
      "children": [
        2
      ],
      "matrix": [
        1.0,
        0.0,
        0.0,
        0.0,
        0.0,
        0.0,
        1.0,
        0.0,
        0.0,
        -1.0,
        0.0,
        0.0,
        0.0,
        0.0,
        0.0,
        1.0
      ],
      "name": "b84749f5e5e9426ba828458fbae38afa.fbx"
    },
    {
      "children": [
        3,
        9
      ],
      "name": "RootNode"
    },
    {
      "children": [
        4,
        5,
        6,
        7,
        8
      ],
      "matrix": [
        100.0,
        0.0,
        0.0,
        0.0,
        0.0,
        -1.629206793918314e-05,
        -99.99999999999868,
        0.0,
        0.0,
        99.99999999999868,
        -1.629206793918314e-05,
        0.0,
        0.0,
        0.0,
        0.0,
        1.0
      ],
      "name": "Cube"
    },
    {
      "mesh": 0,
      "name": "Cube_plastic silver_0"
    },
    {
      "mesh": 1,
      "name": "Cube_glass_0"
    },
    {
      "mesh": 2,
      "name": "Cube_plastic_0"
    },
    {
      "mesh": 3,
      "name": "Cube_filter_0"
    },
    {
      "mesh": 4,
      "name": "Cube_glossy_0"
    },
    {
      "children": [
        10
      ],
      "matrix": [
        1.9470718870540082e-05,
        0.0,
        -99.99999999999811,
        0.0,
        2.512148102658649e-13,
        100.0,
        4.8913329480407724e-20,
        0.0,
        99.99999999999811,
        -2.5121481026586963e-13,
        1.9470718870540082e-05,
        0.0,
        0.0,
        10.71878719329834,
        249.02381896972656,
        1.0
      ],
      "name": "Camera"
    },
    {
      "name": "Object_10"
    }
  ],
  "samplers": [
    {
      "magFilter": 9729,
      "minFilter": 9987,
      "wrapS": 10497,
      "wrapT": 10497
    }
  ],
  "scene": 0,
  "scenes": [
    {
      "name": "Sketchfab_Scene",
      "nodes": [
        0
      ]
    }
  ],
  "textures": [
    {
      "sampler": 0,
      "source": 0
    },
    {
      "sampler": 0,
      "source": 1
    },
    {
      "sampler": 0,
      "source": 2
    },
    {
      "sampler": 0,
      "source": 3
    }
  ]
}
