{
  "accessors": [
    {
      "bufferView": 2,
      "componentType": 5126,
      "count": 5380,
      "max": [
        417.9505920410156,
        141.95242309570313,
        33.080047607421875
      ],
      "min": [
        319.6397399902344,
        -1.4065017700195313,
        -149.5040283203125
      ],
      "type": "VEC3"
    },
    {
      "bufferView": 2,
      "byteOffset": 64560,
      "componentType": 5126,
      "count": 5380,
      "max": [
        1.0,
        1.0,
        1.0
      ],
      "min": [
        -1.0,
        -1.0,
        -1.0
      ],
      "type": "VEC3"
    },
    {
      "bufferView": 3,
      "componentType": 5126,
      "count": 5380,
      "max": [
        0.9999998211860657,
        0.9997962713241577,
        0.9999983906745911,
        1.0
      ],
      "min": [
        -1.0,
        -0.9999212622642517,
        -0.9999998807907104,
        -1.0
      ],
      "type": "VEC4"
    },
    {
      "bufferView": 1,
      "componentType": 5126,
      "count": 5380,
      "max": [
        0.9978172779083252,
        0.9885649085044861
      ],
      "min": [
        0.0036775171756744385,
        0.003630340099334717
      ],
      "type": "VEC2"
    },
    {
      "bufferView": 1,
      "byteOffset": 43040,
      "componentType": 5126,
      "count": 5380,
      "max": [
        0.9978172779083252,
        0.9885649085044861
      ],
      "min": [
        0.0036775171756744385,
        0.003630340099334717
      ],
      "type": "VEC2"
    },
    {
      "bufferView": 1,
      "byteOffset": 86080,
      "componentType": 5126,
      "count": 5380,
      "max": [
        0.9978172779083252,
        0.9885649085044861
      ],
      "min": [
        0.0036775171756744385,
        0.003630340099334717
      ],
      "type": "VEC2"
    },
    {
      "bufferView": 1,
      "byteOffset": 129120,
      "componentType": 5126,
      "count": 5380,
      "max": [
        0.9978172779083252,
        0.9885649085044861
      ],
      "min": [
        0.0036775171756744385,
        0.003630340099334717
      ],
      "type": "VEC2"
    },
    {
      "bufferView": 0,
      "componentType": 5125,
      "count": 11388,
      "type": "SCALAR"
    }
  ],
  "asset": {
    "extras": {
      "author": "thiezubu (https://sketchfab.com/thiezubu)",
      "license": "CC-BY-4.0 (http://creativecommons.org/licenses/by/4.0/)",
      "source": "https://sketchfab.com/3d-models/vintage-cabinet-38f968825cf749ae8e485ca014a32be0",
      "title": "Vintage Cabinet"
    },
    "generator": "Sketchfab-12.67.0",
    "version": "2.0"
  },
  "bufferViews": [
    {
      "buffer": 0,
      "byteLength": 45552,
      "name": "floatBufferViews",
      "target": 34963
    },
    {
      "buffer": 0,
      "byteLength": 172160,
      "byteOffset": 45552,
      "byteStride": 8,
      "name": "floatBufferViews",
      "target": 34962
    },
    {
      "buffer": 0,
      "byteLength": 129120,
      "byteOffset": 217712,
      "byteStride": 12,
      "name": "floatBufferViews",
      "target": 34962
    },
    {
      "buffer": 0,
      "byteLength": 86080,
      "byteOffset": 346832,
      "byteStride": 16,
      "name": "floatBufferViews",
      "target": 34962
    }
  ],
  "buffers": [
    {
      "byteLength": 432912,
      "uri": "scene.bin"
    }
  ],
  "images": [
    {
      "uri": "textures/tex_cupboard_baseColor.png"
    },
    {
      "uri": "textures/tex_cupboard_metallicRoughness.png"
    },
    {
      "uri": "textures/tex_cupboard_normal.png"
    }
  ],
  "materials": [
    {
      "doubleSided": true,
      "name": "tex_cupboard",
      "normalTexture": {
        "index": 2
      },
      "pbrMetallicRoughness": {
        "baseColorTexture": {
          "index": 0
        },
        "metallicRoughnessTexture": {
          "index": 1
        }
      }
    }
  ],
  "meshes": [
    {
      "name": "cabinet1_tex_cupboard_0",
      "primitives": [
        {
          "attributes": {
            "NORMAL": 1,
            "POSITION": 0,
            "TANGENT": 2,
            "TEXCOORD_0": 3,
            "TEXCOORD_1": 4,
            "TEXCOORD_2": 5,
            "TEXCOORD_3": 6
          },
          "indices": 7,
          "material": 0,
          "mode": 4
        }
      ]
    }
  ],
  "nodes": [
    {
      "children": [
        1
      ],
      "matrix": [
        0.7132909893989563,
        0.0,
        0.0,
        0.0,
        0.0,
        1.5838241593767595e-16,
        -0.7132909893989563,
        0.0,
        0.0,
        0.7132909893989563,
        1.5838241593767595e-16,
        0.0,
        0.0,
        0.0,
        0.0,
        1.0
      ],
      "name": "Sketchfab_model"
    },
    {
      "children": [
        2
      ],
      "matrix": [
        1.0,
        0.0,
        0.0,
        0.0,
        0.0,
        0.0,
        1.0,
        0.0,
        0.0,
        -1.0,
        0.0,
        0.0,
        0.0,
        0.0,
        0.0,
        1.0
      ],
      "name": "590f8cf18c0c41548d3ba22c0e0d311f.fbx"
    },
    {
      "children": [
        3
      ],
      "name": "RootNode"
    },
    {
      "children": [
        4
      ],
      "matrix": [
        0.009999999776482582,
        0.0,
        0.0,
        0.0,
        0.0,
        0.009999999776482582,
        0.0,
        0.0,
        0.0,
        0.0,
        0.009999999776482582,
        0.0,
        0.0,
        0.0,
        0.0,
        1.0
      ],
      "name": "cabinet1"
    },
    {
      "mesh": 0,
      "name": "cabinet1_tex_cupboard_0"
    }
  ],
  "samplers": [
    {
      "magFilter": 9729,
      "minFilter": 9987,
      "wrapS": 10497,
      "wrapT": 10497
    }
  ],
  "scene": 0,
  "scenes": [
    {
      "name": "Sketchfab_Scene",
      "nodes": [
        0
      ]
    }
  ],
  "textures": [
    {
      "sampler": 0,
      "source": 0
    },
    {
      "sampler": 0,
      "source": 1
    },
    {
      "sampler": 0,
      "source": 2
    }
  ]
}
